{"title":"Vertigo(1958)MP-4[DaScubaDude]","uid":12359286,"size":1292971198,"categoryP":"video","categoryS":"movies","magnet":"?xt=urn:btih:c8b578b4d2d95435ced80fd8b8db746f282a3456&amp;dn=Vertigo%281958%29MP-4%5BDaScubaDude%5D&amp;tr=udp%3A%2F%2Ftracker.openbittorrent.com%3A80&amp;tr=udp%3A%2F%2Fopen.demonii.com%3A1337&amp;tr=udp%3A%2F%2Ftracker.coppersurfer.tk%3A6969&amp;tr=udp%3A%2F%2Fexodus.desync.com%3A6969","seeders":0,"leechers":0,"uploader":"dascuba","files":1,"time":1441511621,"description":"Vertigo (1958)\nApproved  |  128 min  |  Mystery, Romance, Thriller  |  1958 (UK)\n8.4 Your rating:   -/10   Ratings: 8.4/10 from 221,427 users   \nReviews: 655 user | 187 critic\nA retired San Francisco detective suffering from acrophobia investigates the strange activities of an old friend's wife, all the while becoming dangerously obsessed with her.\n\nDirector: Alfred Hitchcock\nWriters: Alec Coppel (screenplay), Samuel A. Taylor (screenplay) (as Samuel Taylor) , 3 more credits Â»\nStars: James Stewart, Kim Novak, Barbara Bel Geddes |\n\nGeneral\nComplete name                            : C:VERTIGOVERTIGO_Title1.mp4\nFormat                                   : MPEG-4\nFormat profile                           : Base Media\nCodec ID                                 : isom\nFile size                                : 1.20 GiB\nDuration                                 : 2h 9mn\nOverall bit rate mode                    : Variable\nOverall bit rate                         : 1 331 Kbps\nMovie name                               : VERTIGO\nGenre                                    : Mystery\nWriting application                      : Lavf54.6.100\n\nVideo\nID                                       : 1\nFormat                                   : AVC\nFormat/Info                              : Advanced Video Codec\nFormat profile                           : Baseline@L3\nFormat settings, CABAC                   : No\nFormat settings, ReFrames                : 6 frames\nFormat settings, GOP                     : M=1, N=60\nCodec ID                                 : avc1\nCodec ID/Info                            : Advanced Video Coding\nDuration                                 : 2h 9mn\nBit rate                                 : 1 197 Kbps\nWidth                                    : 720 pixels\nHeight                                   : 540 pixels\nDisplay aspect ratio                     : 4:3\nFrame rate mode                          : Constant\nFrame rate                               : 29.970 fps\nColor space                              : YUV\nChroma subsampling                       : 4:2:0\nBit depth                                : 8 bits\nScan type                                : Progressive\nBits/(Pixel*Frame)                       : 0.103\nStream size                              : 1.08 GiB (90%)\n\nAudio\nID                                       : 2\nFormat                                   : AAC\nFormat/Info                              : Advanced Audio Codec\nFormat profile                           : LC\nCodec ID                                 : 40\nDuration                                 : 2h 9mn\nBit rate mode                            : Variable\nBit rate                                 : 128 Kbps\nMaximum bit rate                         : 138 Kbps\nChannel(s)                               : 2 channels\nChannel positions                        : Front: L R\nSampling rate                            : 44.1 KHz\nCompression mode                         : Lossy\nStream size                              : 119 MiB (10%)","torrent":{"xt":"urn:btih:c8b578b4d2d95435ced80fd8b8db746f282a3456","amp;dn":"Vertigo%281958%29MP-4%5BDaScubaDude%5D","amp;tr":["udp%3A%2F%2Ftracker.openbittorrent.com%3A80","udp%3A%2F%2Fopen.demonii.com%3A1337","udp%3A%2F%2Ftracker.coppersurfer.tk%3A6969","udp%3A%2F%2Fexodus.desync.com%3A6969"],"infoHash":"c8b578b4d2d95435ced80fd8b8db746f282a3456","infoHashBuffer":{"type":"Buffer","data":[200,181,120,180,210,217,84,53,206,216,15,216,184,219,116,111,40,42,52,86]},"announce":[],"urlList":[]}}